# xmcd CD database file
#
# Track frame offsets:
#	150
#	34370
#	62924
#	91337
#	127616
#	158739
#	187456
#	215787
#
# Disc length: 3278 seconds
#
# Revision: 0
# Processed by: cddbd v1.5.2PL0 Copyright (c) Steve Scherf et al.
# Submitted via: CDex 1.51
#
DISCID=740ccc08
DTITLE=Diane Arkenstone - This Sacred Land
DYEAR=2009
DGENRE=New Age
TTITLE0=Little Raven
TTITLE1=Big Medicine
TTITLE2=Return To The Earth
TTITLE3=Circle Of Fire
TTITLE4=Thunder Sky Falling
TTITLE5=Buffalo Dance
TTITLE6=Within The Circle
TTITLE7=Winds In The Canyon
EXTD=YEAR: 2009
EXTT0=
EXTT1=
EXTT2=
EXTT3=
EXTT4=
EXTT5=
EXTT6=
EXTT7=
PLAYORDER=
